<?xml version="1.0" standalone="no"?>
<!DOCTYPE svg PUBLIC "-//W3C//DTD SVG 20010904//EN"
 "http://www.w3.org/TR/2001/REC-SVG-20010904/DTD/svg10.dtd">
<svg version="1.0" xmlns="http://www.w3.org/2000/svg"
 width="2000.000000pt" height="702.000000pt" viewBox="0 0 2000.000000 702.000000"
 preserveAspectRatio="xMidYMid meet">

<g transform="translate(0.000000,702.000000) scale(0.100000,-0.100000)"
fill="#000000" stroke="none">
<path d="M4476 6688 c-8 -18 -156 -396 -330 -839 -341 -871 -360 -918 -428
-1054 -65 -129 -65 -129 -193 -155 -60 -13 -117 -27 -125 -31 -8 -5 165 -9
384 -9 220 0 397 2 394 5 -3 3 -77 17 -164 30 -222 35 -207 30 -199 68 14 63
78 255 137 405 l59 152 450 0 449 0 44 -89 c80 -159 179 -487 152 -502 -6 -3
-83 -16 -171 -29 -88 -13 -171 -27 -185 -31 -14 -4 203 -8 483 -8 279 -1 507
1 507 3 0 2 -51 16 -112 31 -62 15 -120 34 -130 42 -9 8 -66 114 -127 236 -99
199 -185 399 -694 1622 l-75 180 -56 3 c-56 3 -57 2 -70 -30z m434 -1069 c212
-507 388 -930 392 -940 7 -17 2 -19 -41 -19 l-48 0 -371 885 -371 886 21 54
c11 30 24 55 27 55 3 0 179 -415 391 -921z m-352 474 c136 -280 321 -717 308
-730 -27 -27 -784 -28 -811 -1 -5 4 191 497 268 675 64 147 120 263 127 263 3
0 52 -93 108 -207z"/>
<path d="M1571 6685 c3 -2 83 -18 179 -35 96 -17 176 -32 177 -34 9 -8 23
-190 34 -423 21 -471 -8 -1414 -47 -1516 -3 -10 -52 -21 -152 -37 -81 -13
-158 -26 -172 -31 -14 -4 358 -8 826 -8 l850 -1 32 248 c18 136 32 253 32 260
0 41 -26 -10 -91 -183 l-74 -194 -45 -10 c-193 -41 -476 -39 -675 4 -66 15
-130 29 -142 32 -14 3 -23 15 -27 37 -11 58 -26 474 -26 731 0 416 31 1069 52
1090 3 3 80 18 173 35 92 16 170 32 173 35 3 3 -239 5 -538 5 -299 0 -541 -2
-539 -5z m539 -1040 l0 -985 -50 0 -50 0 0 985 0 985 50 0 50 0 0 -985z"/>
<path d="M5293 6684 c3 -3 58 -18 122 -34 64 -15 120 -31 125 -36 15 -16 138
-252 199 -383 92 -196 602 -1389 662 -1548 30 -79 59 -143 65 -143 6 0 16 19
23 43 28 96 97 266 376 927 321 760 384 904 451 1027 l44 82 118 27 c64 15
124 31 132 35 8 5 -178 9 -414 9 -236 0 -427 -2 -424 -5 3 -4 414 -65 435 -65
1 0 -9 -33 -21 -72 -92 -294 -579 -1434 -624 -1462 -7 -4 -38 46 -83 136 -83
165 -355 792 -439 1013 -63 163 -133 375 -127 381 2 2 84 17 181 33 98 16 180
32 184 35 3 3 -219 6 -493 6 -274 0 -496 -3 -492 -6z m806 -946 c209 -491 381
-897 381 -901 0 -21 -44 -107 -51 -100 -8 9 -798 1846 -807 1876 -4 14 3 17
45 17 l50 0 382 -892z"/>
<path d="M7664 6683 c4 -5 85 -19 179 -33 l172 -25 11 -120 c26 -268 37 -787
25 -1141 -11 -328 -26 -576 -40 -659 l-6 -40 -163 -27 c-89 -14 -167 -29 -174
-31 -7 -3 334 -6 759 -6 l772 -1 5 33 c6 37 26 336 26 386 0 61 -19 22 -74
-150 l-53 -164 -59 -8 c-104 -15 -467 -1 -573 22 -51 11 -96 22 -99 25 -12 13
-22 223 -24 533 -3 295 -1 334 13 348 14 14 52 17 250 21 129 3 263 2 299 -3
l65 -8 34 -127 c22 -85 38 -128 47 -128 12 0 14 54 14 305 0 254 -2 305 -14
305 -13 0 -21 -25 -65 -196 -8 -31 -17 -43 -34 -48 -47 -11 -327 -19 -459 -11
-113 6 -138 10 -143 23 -19 49 1 791 21 811 26 26 587 54 679 34 l40 -9 50
-172 c32 -108 55 -172 63 -172 9 0 11 10 8 33 -3 17 -10 97 -16 177 -6 80 -13
164 -16 188 l-5 42 -761 0 c-419 0 -758 -3 -754 -7z m526 -1033 l0 -990 -50 0
-50 0 0 990 0 990 50 0 50 0 0 -990z"/>
<path d="M9360 6681 c8 -4 68 -18 132 -31 116 -22 117 -23 210 -91 86 -63 94
-72 101 -111 14 -73 20 -1267 8 -1501 -6 -117 -14 -228 -17 -248 l-6 -37 -174
-23 c-96 -13 -174 -27 -174 -31 0 -5 196 -8 437 -8 240 0 433 3 429 8 -4 4
-87 18 -184 32 l-177 25 -6 40 c-23 134 -31 443 -25 980 6 555 10 665 26 665
20 0 399 -401 777 -820 494 -550 570 -637 733 -835 67 -82 126 -151 131 -153
4 -2 10 441 13 985 2 543 8 1013 13 1043 l8 55 169 27 c92 15 171 29 174 32 3
3 -188 6 -424 5 -239 0 -416 -4 -399 -9 17 -4 96 -18 177 -30 l148 -22 5 -32
c19 -109 25 -317 25 -807 0 -306 -3 -584 -6 -618 l-7 -62 -49 48 c-221 215
-1159 1266 -1318 1476 l-42 57 -362 0 c-198 0 -354 -4 -346 -9z m1339 -941
l801 -884 0 -65 0 -66 -39 40 c-42 44 -1647 1820 -1670 1848 -13 17 -11 18 47
15 l61 -3 800 -885z"/>
<path d="M12011 6686 c3 -3 83 -17 179 -31 96 -15 175 -27 176 -28 1 -1 7 -58
14 -127 18 -180 25 -1110 11 -1378 -13 -234 -29 -405 -41 -437 -7 -18 -28 -24
-156 -44 -82 -14 -160 -28 -174 -32 -39 -12 1353 -11 1447 1 246 31 472 142
621 305 179 195 272 446 272 730 0 359 -149 664 -410 842 -71 48 -198 108
-288 137 -186 58 -188 59 -952 63 -387 2 -702 2 -699 -1z m1261 -47 c416 -45
666 -209 823 -542 76 -160 90 -232 90 -452 0 -176 -2 -197 -27 -288 -104 -371
-355 -612 -723 -693 -39 -9 -134 -17 -215 -19 l-145 -4 120 9 c149 11 263 43
399 112 87 45 115 66 201 152 210 212 295 445 282 776 -8 205 -57 373 -152
526 -159 255 -409 389 -785 423 -86 7 -89 8 -33 10 34 0 109 -4 165 -10z
m-732 -989 l0 -990 -50 0 -50 0 0 990 0 990 50 0 50 0 0 -990z m669 944 c411
-60 691 -295 782 -656 29 -117 37 -369 15 -494 -62 -361 -285 -617 -623 -721
-80 -24 -103 -27 -248 -26 -169 0 -261 13 -367 53 -56 21 -57 22 -65 68 -14
82 -10 1459 5 1612 7 74 16 138 21 143 13 13 183 35 280 36 51 1 141 -6 200
-15z"/>
<path d="M14534 6683 c4 -5 85 -19 179 -33 l172 -25 11 -120 c26 -268 37 -787
25 -1141 -11 -328 -26 -576 -40 -659 l-6 -40 -163 -27 c-89 -14 -167 -29 -174
-31 -7 -3 334 -6 759 -6 l772 -1 5 33 c6 37 26 336 26 386 0 61 -19 22 -74
-150 l-53 -164 -59 -8 c-104 -15 -467 -1 -573 22 -51 11 -96 22 -99 25 -12 13
-22 223 -24 533 -3 295 -1 334 13 348 14 14 52 17 250 21 129 3 263 2 299 -3
l65 -8 34 -127 c22 -85 38 -128 47 -128 12 0 14 54 14 305 0 254 -2 305 -14
305 -13 0 -21 -25 -65 -196 -8 -31 -17 -43 -34 -48 -47 -11 -327 -19 -459 -11
-113 6 -138 10 -143 23 -19 49 1 791 21 811 26 26 587 54 679 34 l40 -9 50
-172 c32 -108 55 -172 63 -172 9 0 11 10 8 33 -3 17 -10 97 -16 177 -6 80 -13
164 -16 188 l-5 42 -761 0 c-419 0 -758 -3 -754 -7z m526 -1033 l0 -990 -50 0
-50 0 0 990 0 990 50 0 50 0 0 -990z"/>
<path d="M16242 6685 c2 -3 78 -16 168 -30 91 -14 167 -28 170 -31 30 -30 52
-1110 31 -1514 -12 -220 -29 -431 -37 -439 -2 -2 -76 -16 -165 -32 -89 -16
-164 -31 -167 -34 -3 -3 235 -5 528 -5 293 0 531 3 528 6 -4 3 -75 16 -160 30
-84 13 -162 26 -174 29 -18 4 -22 17 -34 112 -16 136 -25 732 -11 753 16 23
193 27 267 5 91 -26 173 -117 404 -449 218 -313 260 -363 343 -417 84 -54 162
-69 354 -68 148 1 155 1 106 13 -28 7 -74 28 -102 46 -95 60 -146 125 -490
622 -123 179 -189 251 -270 299 l-62 37 69 21 c243 74 391 316 338 554 -60
267 -262 446 -551 486 -75 11 -1094 16 -1083 6z m1034 -45 c214 -54 369 -190
426 -374 31 -100 30 -246 -2 -331 -45 -117 -126 -206 -236 -257 -36 -17 -67
-29 -69 -26 -2 2 24 25 59 51 183 135 228 390 110 634 -83 173 -283 303 -466
303 -26 0 -48 5 -48 10 0 17 143 11 226 -10z m-516 -990 l0 -990 -50 0 -50 0
0 990 0 990 50 0 50 0 0 -990z m419 945 c97 -25 162 -65 241 -144 120 -121
167 -241 157 -406 -11 -198 -109 -329 -290 -387 -67 -22 -275 -36 -341 -24
l-36 7 0 322 c0 287 8 467 25 594 4 28 12 43 23 46 39 10 171 6 221 -8z m207
-1067 c72 -35 154 -133 354 -419 190 -271 302 -401 368 -428 21 -9 30 -17 24
-23 -17 -17 -133 20 -191 59 -76 52 -145 138 -369 462 -120 173 -217 302 -249
331 -29 26 -50 50 -47 53 8 7 57 -8 110 -35z"/>
<path d="M15002 4197 c-6 -7 -24 -49 -40 -94 -40 -112 -85 -183 -167 -262 -84
-79 -180 -130 -321 -168 -96 -26 -108 -27 -364 -27 -146 0 -323 6 -395 12
-275 27 -773 98 -789 112 -4 4 0 56 10 114 22 130 17 152 -46 184 -86 43 -260
19 -309 -43 -11 -15 -24 -57 -31 -105 -7 -44 -15 -82 -19 -84 -3 -2 -56 4
-117 14 -238 39 -399 53 -604 54 -154 0 -223 -4 -276 -16 -143 -33 -242 -104
-279 -202 -21 -54 -11 -91 27 -105 40 -15 72 5 95 58 64 151 324 177 917 90
109 -16 201 -31 204 -33 2 -3 -19 -150 -47 -328 -54 -336 -110 -734 -132 -923
-14 -129 -42 -194 -157 -366 -113 -168 -327 -403 -463 -507 -14 -10 -23 0 -69
76 -30 48 -115 167 -189 266 -75 98 -175 230 -223 293 -49 64 -88 119 -88 124
0 5 20 34 44 64 176 216 256 524 197 758 -32 124 -85 203 -158 233 -107 45
-312 -22 -427 -139 -115 -117 -173 -268 -183 -472 -6 -140 8 -214 61 -330 l34
-74 -88 -218 c-175 -435 -340 -765 -483 -963 -101 -139 -226 -240 -300 -240
-72 0 -124 67 -147 190 -13 69 -13 320 0 451 24 235 84 585 154 894 21 94 31
156 25 166 -28 54 -256 90 -329 52 -31 -16 -39 -29 -74 -125 l-38 -107 -38 57
c-96 148 -226 214 -419 214 -113 -1 -186 -22 -266 -77 -72 -49 -184 -169 -199
-213 -8 -21 -27 -65 -43 -98 -17 -32 -38 -84 -48 -114 -10 -30 -42 -96 -71
-147 -102 -174 -223 -302 -339 -357 -48 -23 -125 -44 -125 -33 0 2 7 24 16 48
30 85 46 185 51 320 17 415 -134 777 -323 779 -98 0 -203 -70 -254 -170 -32
-63 -60 -161 -60 -208 0 -48 -16 -46 -45 4 -36 61 -76 84 -145 84 -65 0 -141
-38 -182 -92 -66 -87 -112 -223 -124 -370 -7 -74 -13 -92 -95 -256 -212 -428
-433 -728 -600 -811 -202 -101 -362 61 -415 419 -20 136 -15 395 11 550 59
356 191 624 337 685 104 43 157 -6 180 -165 13 -87 2 -218 -28 -333 -17 -66
-9 -87 32 -87 31 0 40 20 66 137 16 73 22 134 22 238 1 134 0 142 -27 198 -22
43 -39 63 -73 83 -43 25 -50 26 -157 21 -135 -6 -208 -29 -311 -98 -221 -147
-363 -433 -398 -797 -27 -283 39 -564 178 -758 78 -110 203 -192 333 -220 186
-39 305 8 491 195 144 145 272 326 416 588 l57 105 32 -89 c84 -234 234 -361
450 -380 190 -16 389 76 482 222 25 41 32 45 68 45 63 0 162 27 229 62 39 20
95 66 152 123 l91 90 7 -99 c12 -186 54 -305 137 -388 57 -57 133 -84 213 -74
217 25 490 337 683 780 l44 101 -5 -65 c-46 -511 -23 -834 73 -1044 60 -129
132 -195 246 -223 60 -15 70 -15 130 0 94 23 148 58 255 166 145 146 287 367
441 686 76 157 219 487 219 505 0 25 21 14 50 -27 19 -25 107 -139 198 -252
90 -113 195 -253 233 -310 70 -104 149 -249 149 -274 0 -7 -94 -81 -208 -165
-334 -245 -436 -342 -505 -482 -29 -58 -32 -73 -32 -155 1 -101 19 -154 74
-218 96 -109 331 -137 541 -63 200 69 392 246 484 448 55 117 70 187 70 323 0
129 -17 229 -60 344 l-24 65 87 79 c160 146 273 269 431 473 17 22 21 24 18 9
-13 -54 -28 -512 -23 -685 15 -466 92 -755 241 -905 79 -79 147 -107 256 -109
66 -1 83 3 143 32 287 141 670 827 1091 1954 55 146 65 182 56 198 -15 28 -54
42 -84 31 -25 -10 -22 -2 -146 -331 -433 -1143 -794 -1761 -1031 -1764 -105
-2 -168 99 -201 321 -18 124 -15 562 6 793 22 249 60 564 102 855 48 337 195
1218 204 1228 4 5 97 -5 206 -22 482 -74 731 -96 999 -88 269 8 436 40 593
112 202 94 336 247 401 458 28 92 14 127 -54 127 -12 0 -27 -6 -33 -13z
m-3789 -937 c68 -80 62 -331 -14 -546 -34 -97 -86 -203 -122 -247 l-22 -28
-36 63 c-127 224 -162 450 -92 600 50 107 145 187 225 188 28 0 42 -6 61 -30z
m-3528 -571 c119 -105 194 -478 154 -764 -11 -85 -44 -201 -59 -210 -17 -11
-106 43 -156 94 -84 85 -142 198 -186 359 -29 107 -31 311 -4 394 45 138 168
200 251 127z m1442 -81 c80 -38 196 -149 230 -217 26 -54 26 -53 -87 -286
-120 -244 -276 -472 -404 -592 -94 -89 -133 -95 -164 -26 -14 31 -17 69 -17
208 0 228 33 441 102 658 43 137 82 215 130 263 35 35 38 36 89 31 31 -3 83
-20 121 -39z m-1811 -453 c46 -234 179 -437 337 -515 56 -27 65 -35 57 -50
-15 -28 -77 -78 -133 -107 -46 -25 -63 -28 -148 -28 -88 0 -99 2 -138 28 -52
35 -95 101 -124 192 -18 58 -22 93 -22 210 1 189 36 344 107 465 l32 55 8 -85
c4 -47 15 -121 24 -165z m4148 -1160 c0 -157 -2 -176 -27 -251 -79 -238 -267
-376 -492 -362 -124 8 -172 58 -162 168 12 138 112 246 485 528 170 129 176
132 186 110 6 -13 10 -99 10 -193z"/>
</g>
</svg>
